# File created by Blade
# Date/Time:  Thu Jan 22 19:08:58 2015
# Frame Rate: 120.000 fps
#------------------------------------------------------
:FULLY-SPECIFIED
:DEGREES
2631
root -2.410108 33.014303 -0.213058 8.568198 -1.844949 2.496217
RightUpLeg -1.603763 -9.876212 -3.028972
RightLeg -1.061870 -0.000000 0.000000
RightFoot -11.638579 -4.605506 5.011201
RightToeBase 5.718839 -0.000000 -0.000000
LeftUpLeg -1.566868 5.223513 2.853337
LeftLeg 0.232614 -0.000000 -0.000000
LeftFoot -10.465626 0.813813 -11.329622
LeftToeBase 8.213964 -0.000000 -0.000000
Spine -10.435647 -1.448551 -1.758161
RightShoulder -14.042782 -20.786812 -10.266246
RightArm 28.689552 -18.419702 61.198450
RightForeArm 3.613375 -0.000000 13.064575
RightHand 10.768458 -0.000000 17.593851
RightHandThumb1 -24.326973 -0.000000 -32.862282
LeftShoulder -20.805630 8.521140 17.768100
LeftArm 15.867470 10.327737 -67.019456
LeftForeArm 14.027729 -0.000000 5.963865
LeftHand -1.567436 -0.000000 -14.856681
LeftHandThumb1 -26.253704 0.000000 33.147579
Head 0.264508 4.606796 -0.711964
2632
root -2.411633 33.014757 -0.214133 8.568754 -1.855426 2.497621
RightUpLeg -1.607040 -9.872163 -3.028336
RightLeg -1.062858 -0.000000 0.000000
RightFoot -11.635522 -4.605037 5.001418
RightToeBase 5.699564 -0.000000 -0.000000
LeftUpLeg -1.574393 5.226006 2.854326
LeftLeg 0.247057 -0.000000 -0.000000
LeftFoot -10.463120 0.810665 -11.344878
LeftToeBase 8.188897 -0.000000 -0.000000
Spine -10.447570 -1.449228 -1.768929
RightShoulder -14.076345 -20.782825 -10.408663
RightArm 28.783790 -17.857204 60.689246
RightForeArm 3.598758 0.000000 13.092774
RightHand 10.677044 0.000000 17.617275
RightHandThumb1 -24.326973 -0.000000 -32.862282
LeftShoulder -20.813126 8.532303 17.892862
LeftArm 16.049664 9.967381 -66.300071
LeftForeArm 13.928844 -0.000000 5.896657
LeftHand -1.550501 -0.000000 -14.799164
LeftHandThumb1 -26.253704 0.000000 33.147579
Head 0.289910 4.607648 -0.709487
2633
root -2.413357 33.014837 -0.214405 8.565010 -1.856982 2.488528
RightUpLeg -1.600967 -9.873959 -3.016710
RightLeg -1.070426 -0.000000 0.000000
RightFoot -11.624556 -4.605093 5.011886
RightToeBase 5.710272 -0.000000 -0.000000
LeftUpLeg -1.584426 5.195517 2.868780
LeftLeg 0.278261 -0.000000 -0.000000
LeftFoot -10.486993 0.826166 -11.368616
LeftToeBase 8.198894 -0.000000 -0.000000
Spine -10.454578 -1.462784 -1.763000
RightShoulder -14.078510 -20.733595 -10.582350
RightArm 28.845677 -17.302216 60.205529
RightForeArm 3.531825 -0.000000 13.046442
RightHand 10.801556 -0.000000 17.632174
RightHandThumb1 -24.326973 -0.000000 -32.862282
LeftShoulder -20.845887 8.601176 17.990442
LeftArm 16.283728 9.704224 -65.541603
LeftForeArm 13.760400 -0.000000 5.863738
LeftHand -1.584682 0.000000 -14.657581
LeftHandThumb1 -26.253704 0.000000 33.147579
Head 0.307481 4.627225 -0.719514
2634
root -2.414674 33.015222 -0.213256 8.556304 -1.880518 2.478624
RightUpLeg -1.592516 -9.845390 -3.009647
RightLeg -1.075729 -0.000000 0.000000
RightFoot -11.612966 -4.607765 4.987730
RightToeBase 5.689349 -0.000000 -0.000000
LeftUpLeg -1.569153 5.196620 2.879798
LeftLeg 0.279733 -0.000000 -0.000000
LeftFoot -10.502722 0.848871 -11.374416
LeftToeBase 8.283819 -0.000000 -0.000000
Spine -10.459458 -1.438949 -1.762025
RightShoulder -14.117551 -20.740085 -10.728260
RightArm 28.938593 -16.729604 59.699585
RightForeArm 3.506580 -0.000000 13.073862
RightHand 10.727869 -0.000000 17.537390
RightHandThumb1 -24.326973 -0.000000 -32.862282
LeftShoulder -20.864921 8.653793 18.101661
LeftArm 16.494290 9.281102 -64.846626
LeftForeArm 13.725676 -0.000000 5.835367
LeftHand -1.649931 0.000000 -14.544286
LeftHandThumb1 -26.253704 0.000000 33.147579
Head 0.331377 4.627842 -0.728410
